{
    "asset" : {
        "generator" : "Khronos glTF Blender I/O v1.8.19",
        "version" : "2.0"
    },
    "extensionsUsed" : [
        "KHR_materials_clearcoat"
    ],
    "scene" : 0,
    "scenes" : [
        {
            "name" : "Scene",
            "nodes" : [
                0,
                8
            ]
        }
    ],
    "nodes" : [
        {
            "name" : "02 Head.001",
            "rotation" : [
                0.7071068286895752,
                0,
                0,
                0.7071067094802856
            ],
            "scale" : [
                0.007551101967692375,
                0.007551101967692375,
                0.007551101967692375
            ],
            "translation" : [
                0.07748879492282867,
                2.085697650909424,
                0.1856670379638672
            ]
        },
        {
            "mesh" : 0,
            "name" : "Eye_l",
            "rotation" : [
                0.7071068286895752,
                0,
                0,
                0.7071067094802856
            ],
            "scale" : [
                0.0059103770181536674,
                0.0059103770181536674,
                0.0059103770181536674
            ],
            "translation" : [
                0.004376455210149288,
                -0.4355490207672119,
                0.14836540818214417
            ]
        },
        {
            "mesh" : 1,
            "name" : "Eye_r",
            "rotation" : [
                0.7071068286895752,
                0,
                0,
                0.7071067094802856
            ],
            "scale" : [
                0.0059103770181536674,
                0.0059103770181536674,
                0.0059103770181536674
            ],
            "translation" : [
                0.0043764496222138405,
                -0.4355490207672119,
                0.14836540818214417
            ]
        },
        {
            "mesh" : 2,
            "name" : "Glasses",
            "rotation" : [
                0.7071068286895752,
                0,
                0,
                0.7071067094802856
            ],
            "scale" : [
                0.0059103770181536674,
                0.0059103770181536674,
                0.0059103770181536674
            ],
            "translation" : [
                0.004376455210149288,
                -0.4355490207672119,
                0.14836540818214417
            ]
        },
        {
            "mesh" : 3,
            "name" : "Hair_Strand",
            "rotation" : [
                0.7071020603179932,
                -0.0025698752142488956,
                -0.0025698759127408266,
                0.7071021199226379
            ],
            "scale" : [
                0.00591037655249238,
                0.0059103770181536674,
                0.00591037655249238
            ],
            "translation" : [
                0.004376455210149288,
                -0.4355490207672119,
                0.14836540818214417
            ]
        },
        {
            "mesh" : 4,
            "name" : "Hair_Strand_2",
            "rotation" : [
                0.7813258767127991,
                -0.0009932686807587743,
                -0.030329812318086624,
                0.6233851313591003
            ],
            "scale" : [
                0.0059103770181536674,
                0.00591037655249238,
                0.00591037655249238
            ],
            "translation" : [
                0.004376461263746023,
                -0.4355490207672119,
                0.14836540818214417
            ]
        },
        {
            "mesh" : 5,
            "name" : "Head",
            "rotation" : [
                0.7071068286895752,
                0,
                0,
                0.7071067094802856
            ],
            "scale" : [
                0.0059103770181536674,
                0.0059103770181536674,
                0.0059103770181536674
            ],
            "translation" : [
                0.004376455210149288,
                -0.4355490207672119,
                0.14836540818214417
            ]
        },
        {
            "mesh" : 6,
            "name" : "Lips",
            "rotation" : [
                0.7071068286895752,
                0,
                0,
                0.7071067094802856
            ],
            "scale" : [
                0.0059103770181536674,
                0.0059103770181536674,
                0.0059103770181536674
            ],
            "translation" : [
                0.004376455210149288,
                -0.4355490207672119,
                0.14836540818214417
            ]
        },
        {
            "children" : [
                1,
                2,
                3,
                4,
                5,
                6,
                7
            ],
            "name" : "01 Master rotate",
            "scale" : [
                1.277600646018982,
                1.277600646018982,
                1.277600646018982
            ],
            "translation" : [
                0,
                2.2564404010772705,
                0
            ]
        }
    ],
    "animations" : [
        {
            "channels" : [
                {
                    "sampler" : 0,
                    "target" : {
                        "node" : 8,
                        "path" : "rotation"
                    }
                }
            ],
            "name" : "01 Master rotateAction",
            "samplers" : [
                {
                    "input" : 24,
                    "interpolation" : "LINEAR",
                    "output" : 25
                }
            ]
        }
    ],
    "materials" : [
        {
            "doubleSided" : true,
            "extensions" : {
                "KHR_materials_clearcoat" : {
                    "clearcoatFactor" : 1,
                    "clearcoatRoughnessFactor" : 0.32999998331069946
                }
            },
            "name" : "Eye",
            "pbrMetallicRoughness" : {
                "baseColorFactor" : [
                    0.004590797703713179,
                    0.004590797703713179,
                    0.004590797703713179,
                    1
                ],
                "metallicFactor" : 0.8681818246841431,
                "roughnessFactor" : 0.5
            }
        },
        {
            "doubleSided" : true,
            "name" : "Glass",
            "pbrMetallicRoughness" : {}
        },
        {
            "doubleSided" : true,
            "name" : "Main blue",
            "pbrMetallicRoughness" : {
                "baseColorFactor" : [
                    0,
                    0.002776340115815401,
                    0.21404100954532623,
                    1
                ],
                "metallicFactor" : 0.5863636136054993,
                "roughnessFactor" : 0.5181818008422852
            }
        },
        {
            "doubleSided" : true,
            "name" : "White",
            "pbrMetallicRoughness" : {
                "baseColorFactor" : [
                    0.800000011920929,
                    0.800000011920929,
                    0.800000011920929,
                    1
                ],
                "metallicFactor" : 0,
                "roughnessFactor" : 0.5
            }
        }
    ],
    "meshes" : [
        {
            "name" : "Mesh.005",
            "primitives" : [
                {
                    "attributes" : {
                        "POSITION" : 0,
                        "NORMAL" : 1
                    },
                    "indices" : 2,
                    "material" : 0
                }
            ]
        },
        {
            "name" : "Mesh.004",
            "primitives" : [
                {
                    "attributes" : {
                        "POSITION" : 3,
                        "NORMAL" : 4
                    },
                    "indices" : 5,
                    "material" : 0
                }
            ]
        },
        {
            "name" : "Mesh.006",
            "primitives" : [
                {
                    "attributes" : {
                        "POSITION" : 6,
                        "NORMAL" : 7
                    },
                    "indices" : 8,
                    "material" : 1
                }
            ]
        },
        {
            "name" : "Mesh.002",
            "primitives" : [
                {
                    "attributes" : {
                        "POSITION" : 9,
                        "NORMAL" : 10
                    },
                    "indices" : 11,
                    "material" : 2
                }
            ]
        },
        {
            "name" : "Mesh.003",
            "primitives" : [
                {
                    "attributes" : {
                        "POSITION" : 12,
                        "NORMAL" : 13
                    },
                    "indices" : 14,
                    "material" : 2
                }
            ]
        },
        {
            "name" : "Mesh.001",
            "primitives" : [
                {
                    "attributes" : {
                        "POSITION" : 15,
                        "NORMAL" : 16
                    },
                    "indices" : 17,
                    "material" : 2
                },
                {
                    "attributes" : {
                        "POSITION" : 18,
                        "NORMAL" : 19
                    },
                    "indices" : 20,
                    "material" : 3
                }
            ]
        },
        {
            "name" : "Mesh",
            "primitives" : [
                {
                    "attributes" : {
                        "POSITION" : 21,
                        "NORMAL" : 22
                    },
                    "indices" : 23,
                    "material" : 2
                }
            ]
        }
    ],
    "accessors" : [
        {
            "bufferView" : 0,
            "componentType" : 5126,
            "count" : 366,
            "max" : [
                24.575210571289062,
                27.344058990478516,
                -72.5997314453125
            ],
            "min" : [
                14.614638328552246,
                19.344058990478516,
                -82.52218627929688
            ],
            "type" : "VEC3"
        },
        {
            "bufferView" : 1,
            "componentType" : 5126,
            "count" : 366,
            "type" : "VEC3"
        },
        {
            "bufferView" : 2,
            "componentType" : 5123,
            "count" : 1635,
            "type" : "SCALAR"
        },
        {
            "bufferView" : 3,
            "componentType" : 5126,
            "count" : 366,
            "max" : [
                -15.011042594909668,
                27.344058990478516,
                -72.5997314453125
            ],
            "min" : [
                -24.971614837646484,
                19.344058990478516,
                -82.52218627929688
            ],
            "type" : "VEC3"
        },
        {
            "bufferView" : 4,
            "componentType" : 5126,
            "count" : 366,
            "type" : "VEC3"
        },
        {
            "bufferView" : 5,
            "componentType" : 5123,
            "count" : 1635,
            "type" : "SCALAR"
        },
        {
            "bufferView" : 6,
            "componentType" : 5126,
            "count" : 3319,
            "max" : [
                41.96101379394531,
                37.148895263671875,
                -57.945838928222656
            ],
            "min" : [
                -43.38352966308594,
                21.528779983520508,
                -93.17893981933594
            ],
            "type" : "VEC3"
        },
        {
            "bufferView" : 7,
            "componentType" : 5126,
            "count" : 3319,
            "type" : "VEC3"
        },
        {
            "bufferView" : 8,
            "componentType" : 5123,
            "count" : 19596,
            "type" : "SCALAR"
        },
        {
            "bufferView" : 9,
            "componentType" : 5126,
            "count" : 572,
            "max" : [
                8.670190811157227,
                -14.128570556640625,
                -106.18805694580078
            ],
            "min" : [
                -14.356475830078125,
                -46.1285514831543,
                -147.2967529296875
            ],
            "type" : "VEC3"
        },
        {
            "bufferView" : 10,
            "componentType" : 5126,
            "count" : 572,
            "type" : "VEC3"
        },
        {
            "bufferView" : 11,
            "componentType" : 5123,
            "count" : 3012,
            "type" : "SCALAR"
        },
        {
            "bufferView" : 12,
            "componentType" : 5126,
            "count" : 425,
            "max" : [
                -6.135087966918945,
                -50.68286895751953,
                -109.79832458496094
            ],
            "min" : [
                -21.137052536010742,
                -62.466575622558594,
                -132.2667694091797
            ],
            "type" : "VEC3"
        },
        {
            "bufferView" : 13,
            "componentType" : 5126,
            "count" : 425,
            "type" : "VEC3"
        },
        {
            "bufferView" : 14,
            "componentType" : 5123,
            "count" : 2148,
            "type" : "SCALAR"
        },
        {
            "bufferView" : 15,
            "componentType" : 5126,
            "count" : 33098,
            "max" : [
                83.73084259033203,
                25.55535316467285,
                -0.5133075714111328
            ],
            "min" : [
                -84.43865966796875,
                -90.6293716430664,
                -132.297607421875
            ],
            "type" : "VEC3"
        },
        {
            "bufferView" : 16,
            "componentType" : 5126,
            "count" : 33098,
            "type" : "VEC3"
        },
        {
            "bufferView" : 17,
            "componentType" : 5123,
            "count" : 193941,
            "type" : "SCALAR"
        },
        {
            "bufferView" : 18,
            "componentType" : 5126,
            "count" : 5667,
            "max" : [
                47.37058639526367,
                37.825279235839844,
                -4.679783821105957
            ],
            "min" : [
                -48.07839584350586,
                6.85938835144043,
                -104.39803314208984
            ],
            "type" : "VEC3"
        },
        {
            "bufferView" : 19,
            "componentType" : 5126,
            "count" : 5667,
            "type" : "VEC3"
        },
        {
            "bufferView" : 20,
            "componentType" : 5123,
            "count" : 32379,
            "type" : "SCALAR"
        },
        {
            "bufferView" : 21,
            "componentType" : 5126,
            "count" : 4341,
            "max" : [
                18.654151916503906,
                37.78143310546875,
                -18.453330993652344
            ],
            "min" : [
                -15.276007652282715,
                30.508277893066406,
                -39.38388442993164
            ],
            "type" : "VEC3"
        },
        {
            "bufferView" : 22,
            "componentType" : 5126,
            "count" : 4341,
            "type" : "VEC3"
        },
        {
            "bufferView" : 23,
            "componentType" : 5123,
            "count" : 25416,
            "type" : "SCALAR"
        },
        {
            "bufferView" : 24,
            "componentType" : 5126,
            "count" : 129,
            "max" : [
                4.266666666666667
            ],
            "min" : [
                0
            ],
            "type" : "SCALAR"
        },
        {
            "bufferView" : 25,
            "componentType" : 5126,
            "count" : 129,
            "type" : "VEC4"
        }
    ],
    "bufferViews" : [
        {
            "buffer" : 0,
            "byteLength" : 4392,
            "byteOffset" : 0
        },
        {
            "buffer" : 0,
            "byteLength" : 4392,
            "byteOffset" : 4392
        },
        {
            "buffer" : 0,
            "byteLength" : 3270,
            "byteOffset" : 8784
        },
        {
            "buffer" : 0,
            "byteLength" : 4392,
            "byteOffset" : 12056
        },
        {
            "buffer" : 0,
            "byteLength" : 4392,
            "byteOffset" : 16448
        },
        {
            "buffer" : 0,
            "byteLength" : 3270,
            "byteOffset" : 20840
        },
        {
            "buffer" : 0,
            "byteLength" : 39828,
            "byteOffset" : 24112
        },
        {
            "buffer" : 0,
            "byteLength" : 39828,
            "byteOffset" : 63940
        },
        {
            "buffer" : 0,
            "byteLength" : 39192,
            "byteOffset" : 103768
        },
        {
            "buffer" : 0,
            "byteLength" : 6864,
            "byteOffset" : 142960
        },
        {
            "buffer" : 0,
            "byteLength" : 6864,
            "byteOffset" : 149824
        },
        {
            "buffer" : 0,
            "byteLength" : 6024,
            "byteOffset" : 156688
        },
        {
            "buffer" : 0,
            "byteLength" : 5100,
            "byteOffset" : 162712
        },
        {
            "buffer" : 0,
            "byteLength" : 5100,
            "byteOffset" : 167812
        },
        {
            "buffer" : 0,
            "byteLength" : 4296,
            "byteOffset" : 172912
        },
        {
            "buffer" : 0,
            "byteLength" : 397176,
            "byteOffset" : 177208
        },
        {
            "buffer" : 0,
            "byteLength" : 397176,
            "byteOffset" : 574384
        },
        {
            "buffer" : 0,
            "byteLength" : 387882,
            "byteOffset" : 971560
        },
        {
            "buffer" : 0,
            "byteLength" : 68004,
            "byteOffset" : 1359444
        },
        {
            "buffer" : 0,
            "byteLength" : 68004,
            "byteOffset" : 1427448
        },
        {
            "buffer" : 0,
            "byteLength" : 64758,
            "byteOffset" : 1495452
        },
        {
            "buffer" : 0,
            "byteLength" : 52092,
            "byteOffset" : 1560212
        },
        {
            "buffer" : 0,
            "byteLength" : 52092,
            "byteOffset" : 1612304
        },
        {
            "buffer" : 0,
            "byteLength" : 50832,
            "byteOffset" : 1664396
        },
        {
            "buffer" : 0,
            "byteLength" : 516,
            "byteOffset" : 1715228
        },
        {
            "buffer" : 0,
            "byteLength" : 2064,
            "byteOffset" : 1715744
        }
    ],
    "buffers" : [
        {
            "byteLength" : 1717808,
            "uri" : "data:application/octet-stream;base64,"
        }
    ]
}
