{
    "asset" : {
        "generator" : "Khronos glTF Blender I/O v3.2.40",
        "version" : "2.0"
    },
    "extensionsUsed" : [
        "KHR_materials_clearcoat"
    ],
    "scene" : 0,
    "scenes" : [
        {
            "name" : "Scene",
            "nodes" : [
                0,
                8
            ]
        }
    ],
    "nodes" : [
        {
            "name" : "02 Head.001",
            "rotation" : [
                0.7071068286895752,
                0,
                0,
                0.7071067094802856
            ],
            "scale" : [
                0.02848040498793125,
                0.028480403125286102,
                0.028480403125286102
            ],
            "translation" : [
                0.1848762035369873,
                -0.3409748673439026,
                0.4429726302623749
            ]
        },
        {
            "mesh" : 0,
            "name" : "Eye_l",
            "rotation" : [
                0.7071068286895752,
                0,
                0,
                0.7071067094802856
            ],
            "scale" : [
                0.0059103770181536674,
                0.00591037655249238,
                0.00591037655249238
            ],
            "translation" : [
                0.12131968140602112,
                0.015808969736099243,
                0.28896111249923706
            ]
        },
        {
            "mesh" : 1,
            "name" : "Eye_r",
            "rotation" : [
                0.7071068286895752,
                0,
                0,
                0.7071067094802856
            ],
            "scale" : [
                0.0059103770181536674,
                0.00591037655249238,
                0.00591037655249238
            ],
            "translation" : [
                -0.11490977555513382,
                0.015808433294296265,
                0.2889612317085266
            ]
        },
        {
            "mesh" : 2,
            "name" : "Glasses",
            "rotation" : [
                0.7071068286895752,
                0,
                0,
                0.7071067094802856
            ],
            "scale" : [
                0.0059103770181536674,
                0.00591037655249238,
                0.00591037655249238
            ],
            "translation" : [
                -0.00039160624146461487,
                0.020974330604076385,
                0.321178674697876
            ]
        },
        {
            "mesh" : 3,
            "name" : "Hair_Strand",
            "rotation" : [
                0.7071020603179932,
                -0.0025698754470795393,
                -0.0025698759127408266,
                0.7071021199226379
            ],
            "scale" : [
                0.00591037655249238,
                0.00591037655249238,
                0.005910376086831093
            ],
            "translation" : [
                0.01664363220334053,
                0.3558393716812134,
                -0.02959631383419037
            ]
        },
        {
            "mesh" : 4,
            "name" : "Hair_Strand_2",
            "rotation" : [
                0.7813258767127991,
                -0.0009932686807587743,
                -0.030329812318086624,
                0.6233851313591003
            ],
            "scale" : [
                0.0059103770181536674,
                0.00591037655249238,
                0.00591037655249238
            ],
            "translation" : [
                -0.03026668168604374,
                0.35887235403060913,
                -0.01191074401140213
            ]
        },
        {
            "mesh" : 5,
            "name" : "Head",
            "rotation" : [
                0.7071068286895752,
                0,
                0,
                0.7071067094802856
            ],
            "scale" : [
                0.0059103770181536674,
                0.00591037655249238,
                0.00591037655249238
            ],
            "translation" : [
                0.0023008640855550766,
                -0.03350884094834328,
                0.0005249977111816406
            ]
        },
        {
            "mesh" : 6,
            "name" : "Lips",
            "rotation" : [
                0.7071068286895752,
                0,
                0,
                0.7071067094802856
            ],
            "scale" : [
                0.0059103770181536674,
                0.00591037655249238,
                0.00591037655249238
            ],
            "translation" : [
                0.038565270602703094,
                -0.2519022822380066,
                0.34986674785614014
            ]
        },
        {
            "children" : [
                1,
                2,
                3,
                4,
                5,
                6,
                7
            ],
            "name" : "01 Master rotate",
            "scale" : [
                4.818711757659912,
                4.818711757659912,
                4.818711757659912
            ],
            "translation" : [
                -0.10738740116357803,
                0.3030136227607727,
                -0.2573055922985077
            ]
        }
    ],
    "animations" : [
        {
            "channels" : [
                {
                    "sampler" : 0,
                    "target" : {
                        "node" : 8,
                        "path" : "rotation"
                    }
                }
            ],
            "name" : "01 Master rotateAction",
            "samplers" : [
                {
                    "input" : 24,
                    "interpolation" : "LINEAR",
                    "output" : 25
                }
            ]
        }
    ],
    "materials" : [
        {
            "doubleSided" : true,
            "extensions" : {
                "KHR_materials_clearcoat" : {
                    "clearcoatFactor" : 1,
                    "clearcoatRoughnessFactor" : 0.32999998331069946
                }
            },
            "name" : "Eye",
            "pbrMetallicRoughness" : {
                "baseColorFactor" : [
                    0.004590797703713179,
                    0.004590797703713179,
                    0.004590797703713179,
                    1
                ],
                "metallicFactor" : 0.8681818246841431,
                "roughnessFactor" : 0.5
            }
        },
        {
            "doubleSided" : true,
            "name" : "Glass",
            "pbrMetallicRoughness" : {
                "baseColorFactor" : [
                    0.37123730778694153,
                    0.7304606437683105,
                    0.0006072708638384938,
                    1
                ]
            }
        },
        {
            "doubleSided" : true,
            "name" : "Main blue",
            "pbrMetallicRoughness" : {
                "baseColorFactor" : [
                    0.002428094856441021,
                    0.007498959545046091,
                    0.18447494506835938,
                    1
                ],
                "metallicFactor" : 0.5863636136054993,
                "roughnessFactor" : 0.5181818008422852
            }
        },
        {
            "doubleSided" : true,
            "name" : "White",
            "pbrMetallicRoughness" : {
                "baseColorFactor" : [
                    0.800000011920929,
                    0.800000011920929,
                    0.800000011920929,
                    1
                ],
                "metallicFactor" : 0,
                "roughnessFactor" : 0.5
            }
        }
    ],
    "meshes" : [
        {
            "name" : "Mesh.005",
            "primitives" : [
                {
                    "attributes" : {
                        "POSITION" : 0,
                        "NORMAL" : 1
                    },
                    "indices" : 2,
                    "material" : 0
                }
            ]
        },
        {
            "name" : "Mesh.004",
            "primitives" : [
                {
                    "attributes" : {
                        "POSITION" : 3,
                        "NORMAL" : 4
                    },
                    "indices" : 5,
                    "material" : 0
                }
            ]
        },
        {
            "name" : "Mesh.006",
            "primitives" : [
                {
                    "attributes" : {
                        "POSITION" : 6,
                        "NORMAL" : 7
                    },
                    "indices" : 8,
                    "material" : 1
                }
            ]
        },
        {
            "name" : "Mesh.002",
            "primitives" : [
                {
                    "attributes" : {
                        "POSITION" : 9,
                        "NORMAL" : 10
                    },
                    "indices" : 11,
                    "material" : 2
                }
            ]
        },
        {
            "name" : "Mesh.003",
            "primitives" : [
                {
                    "attributes" : {
                        "POSITION" : 12,
                        "NORMAL" : 13
                    },
                    "indices" : 14,
                    "material" : 2
                }
            ]
        },
        {
            "name" : "Mesh.001",
            "primitives" : [
                {
                    "attributes" : {
                        "POSITION" : 15,
                        "NORMAL" : 16
                    },
                    "indices" : 17,
                    "material" : 2
                },
                {
                    "attributes" : {
                        "POSITION" : 18,
                        "NORMAL" : 19
                    },
                    "indices" : 20,
                    "material" : 3
                }
            ]
        },
        {
            "name" : "Mesh",
            "primitives" : [
                {
                    "attributes" : {
                        "POSITION" : 21,
                        "NORMAL" : 22
                    },
                    "indices" : 23,
                    "material" : 2
                }
            ]
        }
    ],
    "accessors" : [
        {
            "bufferView" : 0,
            "componentType" : 5126,
            "count" : 366,
            "max" : [
                4.789125442504883,
                3.556123733520508,
                3.7673187255859375
            ],
            "min" : [
                -5.171446800231934,
                -4.443876266479492,
                -6.1551361083984375
            ],
            "type" : "VEC3"
        },
        {
            "bufferView" : 1,
            "componentType" : 5126,
            "count" : 366,
            "type" : "VEC3"
        },
        {
            "bufferView" : 2,
            "componentType" : 5123,
            "count" : 1635,
            "type" : "SCALAR"
        },
        {
            "bufferView" : 3,
            "componentType" : 5126,
            "count" : 366,
            "max" : [
                5.171463966369629,
                3.5561065673828125,
                3.7672271728515625
            ],
            "min" : [
                -4.7891082763671875,
                -4.4438934326171875,
                -6.1552276611328125
            ],
            "type" : "VEC3"
        },
        {
            "bufferView" : 4,
            "componentType" : 5126,
            "count" : 366,
            "type" : "VEC3"
        },
        {
            "bufferView" : 5,
            "componentType" : 5123,
            "count" : 1635,
            "type" : "SCALAR"
        },
        {
            "bufferView" : 6,
            "componentType" : 5126,
            "count" : 3319,
            "max" : [
                42.76774215698242,
                7.909948348999023,
                19.29515838623047
            ],
            "min" : [
                -42.57680130004883,
                -7.710166931152344,
                -15.937942504882812
            ],
            "type" : "VEC3"
        },
        {
            "bufferView" : 7,
            "componentType" : 5126,
            "count" : 3319,
            "type" : "VEC3"
        },
        {
            "bufferView" : 8,
            "componentType" : 5123,
            "count" : 19596,
            "type" : "SCALAR"
        },
        {
            "bufferView" : 9,
            "componentType" : 5126,
            "count" : 624,
            "max" : [
                7.5679731369018555,
                15.981456756591797,
                27.72162628173828
            ],
            "min" : [
                -15.458693504333496,
                -16.018524169921875,
                -13.387069702148438
            ],
            "type" : "VEC3"
        },
        {
            "bufferView" : 10,
            "componentType" : 5126,
            "count" : 624,
            "type" : "VEC3"
        },
        {
            "bufferView" : 11,
            "componentType" : 5123,
            "count" : 3012,
            "type" : "SCALAR"
        },
        {
            "bufferView" : 12,
            "componentType" : 5126,
            "count" : 491,
            "max" : [
                3.7551584243774414,
                5.891788482666016,
                14.851654052734375
            ],
            "min" : [
                -11.246806144714355,
                -5.891918182373047,
                -7.616790771484375
            ],
            "type" : "VEC3"
        },
        {
            "bufferView" : 13,
            "componentType" : 5126,
            "count" : 491,
            "type" : "VEC3"
        },
        {
            "bufferView" : 14,
            "componentType" : 5123,
            "count" : 2148,
            "type" : "SCALAR"
        },
        {
            "bufferView" : 15,
            "componentType" : 5126,
            "count" : 33228,
            "max" : [
                84.08202362060547,
                52.448280334472656,
                67.50946044921875
            ],
            "min" : [
                -84.08747863769531,
                -65.61566162109375,
                -64.27484130859375
            ],
            "type" : "VEC3"
        },
        {
            "bufferView" : 16,
            "componentType" : 5126,
            "count" : 33228,
            "type" : "VEC3"
        },
        {
            "bufferView" : 17,
            "componentType" : 5123,
            "count" : 194517,
            "type" : "SCALAR"
        },
        {
            "bufferView" : 18,
            "componentType" : 5126,
            "count" : 5552,
            "max" : [
                47.721763610839844,
                62.838993072509766,
                63.34298324584961
            ],
            "min" : [
                -47.72721862792969,
                31.87310218811035,
                -36.375267028808594
            ],
            "type" : "VEC3"
        },
        {
            "bufferView" : 19,
            "componentType" : 5126,
            "count" : 5552,
            "type" : "VEC3"
        },
        {
            "bufferView" : 20,
            "componentType" : 5123,
            "count" : 31803,
            "type" : "SCALAR"
        },
        {
            "bufferView" : 21,
            "componentType" : 5126,
            "count" : 4341,
            "max" : [
                12.869611740112305,
                3.6886253356933594,
                12.61859130859375
            ],
            "min" : [
                -21.060546875,
                -3.5845298767089844,
                -8.311962127685547
            ],
            "type" : "VEC3"
        },
        {
            "bufferView" : 22,
            "componentType" : 5126,
            "count" : 4341,
            "type" : "VEC3"
        },
        {
            "bufferView" : 23,
            "componentType" : 5123,
            "count" : 25416,
            "type" : "SCALAR"
        },
        {
            "bufferView" : 24,
            "componentType" : 5126,
            "count" : 103,
            "max" : [
                4.25
            ],
            "min" : [
                0
            ],
            "type" : "SCALAR"
        },
        {
            "bufferView" : 25,
            "componentType" : 5126,
            "count" : 103,
            "type" : "VEC4"
        }
    ],
    "bufferViews" : [
        {
            "buffer" : 0,
            "byteLength" : 4392,
            "byteOffset" : 0
        },
        {
            "buffer" : 0,
            "byteLength" : 4392,
            "byteOffset" : 4392
        },
        {
            "buffer" : 0,
            "byteLength" : 3270,
            "byteOffset" : 8784
        },
        {
            "buffer" : 0,
            "byteLength" : 4392,
            "byteOffset" : 12056
        },
        {
            "buffer" : 0,
            "byteLength" : 4392,
            "byteOffset" : 16448
        },
        {
            "buffer" : 0,
            "byteLength" : 3270,
            "byteOffset" : 20840
        },
        {
            "buffer" : 0,
            "byteLength" : 39828,
            "byteOffset" : 24112
        },
        {
            "buffer" : 0,
            "byteLength" : 39828,
            "byteOffset" : 63940
        },
        {
            "buffer" : 0,
            "byteLength" : 39192,
            "byteOffset" : 103768
        },
        {
            "buffer" : 0,
            "byteLength" : 7488,
            "byteOffset" : 142960
        },
        {
            "buffer" : 0,
            "byteLength" : 7488,
            "byteOffset" : 150448
        },
        {
            "buffer" : 0,
            "byteLength" : 6024,
            "byteOffset" : 157936
        },
        {
            "buffer" : 0,
            "byteLength" : 5892,
            "byteOffset" : 163960
        },
        {
            "buffer" : 0,
            "byteLength" : 5892,
            "byteOffset" : 169852
        },
        {
            "buffer" : 0,
            "byteLength" : 4296,
            "byteOffset" : 175744
        },
        {
            "buffer" : 0,
            "byteLength" : 398736,
            "byteOffset" : 180040
        },
        {
            "buffer" : 0,
            "byteLength" : 398736,
            "byteOffset" : 578776
        },
        {
            "buffer" : 0,
            "byteLength" : 389034,
            "byteOffset" : 977512
        },
        {
            "buffer" : 0,
            "byteLength" : 66624,
            "byteOffset" : 1366548
        },
        {
            "buffer" : 0,
            "byteLength" : 66624,
            "byteOffset" : 1433172
        },
        {
            "buffer" : 0,
            "byteLength" : 63606,
            "byteOffset" : 1499796
        },
        {
            "buffer" : 0,
            "byteLength" : 52092,
            "byteOffset" : 1563404
        },
        {
            "buffer" : 0,
            "byteLength" : 52092,
            "byteOffset" : 1615496
        },
        {
            "buffer" : 0,
            "byteLength" : 50832,
            "byteOffset" : 1667588
        },
        {
            "buffer" : 0,
            "byteLength" : 412,
            "byteOffset" : 1718420
        },
        {
            "buffer" : 0,
            "byteLength" : 1648,
            "byteOffset" : 1718832
        }
    ],
    "buffers" : [
        {
            "byteLength" : 1720480,
            "uri" : "data:application/octet-stream;base64,"
        }
    ]
}
